<svg id="Layer_1" data-name="Layer 1" xmlns="http://www.w3.org/2000/svg" viewBox="0 0 51.33 57.66"><path d="M32,36.39a2.43,2.43,0,0,1-.72,1.75,2.52,2.52,0,0,1-1.77.74c-2.41,0-4.93,0-7.32,0a10.63,10.63,0,0,1-8-3.31,10.15,10.15,0,0,1-2.54-7.79,10.05,10.05,0,0,1,9.91-9c1.64,0,3.28,0,5,0h3a2.5,2.5,0,0,1,0,5H22A5.52,5.52,0,0,0,17.48,26a5.18,5.18,0,0,0-.55,4.78c.7,1.94,2.66,3.13,5.22,3.13,1,0,2,0,3.09,0l3.08,0h1.15A2.49,2.49,0,0,1,32,36.39Z"/><path d="M39.67,37.29A9.65,9.65,0,0,1,30.39,46c-2.46,0-4.93,0-7.39,0a2.38,2.38,0,0,1,0-4.75h6.94a5,5,0,0,0,4.16-2.12,5,5,0,0,0-4.28-7.91H23a2.34,2.34,0,0,1-2.36-2.34v-.2A2.34,2.34,0,0,1,23,26.39h6.94a5,5,0,0,0,4.16-2.14,5,5,0,0,0-4.28-7.88c-2,0-4.06,0-6.12,0H23A2.33,2.33,0,0,1,20.64,14,2.36,2.36,0,0,1,23,11.61c2.28,0,4.62,0,6.84,0a9.7,9.7,0,0,1,9.85,10.72,9.56,9.56,0,0,1-3.43,6.47A9.81,9.81,0,0,1,39.67,37.29Z"/></svg>