<svg id="Layer_1" data-name="Layer 1" xmlns="http://www.w3.org/2000/svg" viewBox="0 0 144 144"><defs><style>.cls-1{fill:#010101;}.cls-2{fill:#fff;}</style></defs><circle class="cls-1" cx="72" cy="71.88" r="72"/><path class="cls-2" d="M84,89.57a5.42,5.42,0,0,1-1.63,3.93,5.61,5.61,0,0,1-4,1.69c-5.45,0-11.12,0-16.52-.06a24,24,0,0,1-18-7.47,22.83,22.83,0,0,1-5.73-17.59c.9-11.24,10.73-20.17,22.36-20.34,3.71-.06,7.42-.06,11.19-.06h6.68a5.65,5.65,0,0,1,0,11.3H61.59a12.45,12.45,0,0,0-10.28,5,11.72,11.72,0,0,0-1.24,10.79c1.58,4.39,6,7.08,11.8,7.08,2.25.06,4.61.06,7,.06l7-.06h2.58A5.61,5.61,0,0,1,84,89.57Z"/><path class="cls-2" d="M101.43,91.59c-.9,10.73-10.28,19.55-21,19.67-5.56.11-11.12.11-16.69.11a5.37,5.37,0,0,1,0-10.73H79.46a11.31,11.31,0,0,0,9.38-4.78,11.47,11.47,0,0,0,1.3-10.56c-1.52-4.33-6-7.25-11-7.31H63.78a5.28,5.28,0,0,1-5.33-5.28v-.45A5.28,5.28,0,0,1,63.78,67H79.46A11.31,11.31,0,0,0,90.14,51.64a11.49,11.49,0,0,0-11-7.31c-4.44,0-9.16,0-13.82,0H63.67a5.34,5.34,0,0,1,.06-10.68c5.17,0,10.45,0,15.45.06a21.95,21.95,0,0,1,22.25,24.22,21.58,21.58,0,0,1-7.75,14.61A22.12,22.12,0,0,1,101.43,91.59Z"/><path class="cls-2" d="M72,123.48a50.57,50.57,0,1,1,50.56-50.57A50.62,50.62,0,0,1,72,123.48Zm0-99.94a49.38,49.38,0,1,0,49.38,49.37A49.43,49.43,0,0,0,72,23.54Z"/><path class="cls-2" d="M30.82,35.46l-1.36,1.4-8.81-8.52L22,26.93l3.55,3.44a3.41,3.41,0,0,1,.93-3.26,4.28,4.28,0,0,1,6.22.11,4.3,4.3,0,0,1,.34,6.22,3.45,3.45,0,0,1-3.25,1Zm.58-3.08a2.59,2.59,0,0,0-.1-3.7,2.6,2.6,0,1,0-3.62,3.74A2.6,2.6,0,0,0,31.4,32.38Z"/><path class="cls-2" d="M34.08,20.53a4.56,4.56,0,1,1-.95,6.36A4.49,4.49,0,0,1,34.08,20.53Zm4.28,5.79a2.65,2.65,0,0,0-3.15-4.26,2.65,2.65,0,0,0,3.15,4.26Z"/><path class="cls-2" d="M39.82,17.32a6,6,0,0,1,2-1.66c1.92-1,3.65-.75,4.81,1.43l2.53,4.78-1.73.91-.37-.7A2.64,2.64,0,0,1,45.59,24a2.79,2.79,0,0,1-4-1.15,2.84,2.84,0,0,1,1.31-3.93,3,3,0,0,1,2.25-.25L44.83,18a1.64,1.64,0,0,0-2.43-.68A4.36,4.36,0,0,0,40.7,19Zm5.55,5.08a1.49,1.49,0,0,0,.74-2,1.52,1.52,0,0,0-2.06-.52,1.42,1.42,0,1,0,1.32,2.5Z"/><path class="cls-2" d="M58.87,18.14A4.58,4.58,0,0,1,57,19.25a4.45,4.45,0,0,1-5.74-3,4.43,4.43,0,0,1,3.06-5.7,4.68,4.68,0,0,1,2.15-.15l.61,2a3.55,3.55,0,0,0-2.2,0,2.65,2.65,0,0,0,1.56,5.06,3.43,3.43,0,0,0,1.8-1.26Z"/><path class="cls-2" d="M62.08,8.84a4.48,4.48,0,0,1,5.2,3.79,4.55,4.55,0,1,1-9,1.41A4.47,4.47,0,0,1,62.08,8.84ZM63.19,16a2.56,2.56,0,0,0,2.12-3,2.57,2.57,0,1,0-5.08.79A2.61,2.61,0,0,0,63.19,16Z"/><path class="cls-2" d="M70.3,9.47a2.68,2.68,0,0,1,2.48-1.39,3.13,3.13,0,0,1,3.13,3.43l-.09,5.55-2,0L73.94,12a1.78,1.78,0,0,0-1.81-2,1.76,1.76,0,0,0-1.86,1.83L70.18,17l-2,0,.14-8.75,1.95,0Z"/><path class="cls-2" d="M82.45,11.24a3.66,3.66,0,0,0-1.88-.87c-.74-.1-1.17.22-1.24.7s.16.59.55.91l1.28,1a2.6,2.6,0,0,1,1.15,2.48c-.2,1.5-1.48,2.4-3.44,2.15a5.84,5.84,0,0,1-2.19-.79l.26-2a3.72,3.72,0,0,0,2,1.09c.77.1,1.24-.23,1.31-.74,0-.35-.11-.66-.61-1l-1.37-1.07a2.4,2.4,0,0,1-1-2.32c.19-1.44,1.42-2.34,3.39-2.08a6.51,6.51,0,0,1,2,.61Z"/><path class="cls-2" d="M83.32,18.15l1.57-6.9-1.43-.32.37-1.63,1.54.35.45-2h1.9l-.55,2.41,1.55.35L88.34,12l-1.54-.35-1.57,6.9Z"/><path class="cls-2" d="M91.34,12.36a2.35,2.35,0,0,1,2.43-.52,4.61,4.61,0,0,1,.68.28l-.65,2a3,3,0,0,0-1-.58,1.69,1.69,0,0,0-2.2,1.25L89,19.66l-1.86-.6,2.7-8.32,1.86.6Z"/><path class="cls-2" d="M93.89,21.51l-1.81-.74,3.34-8.08,1.81.75Zm3.91-12a1.2,1.2,0,0,1,.64,1.58,1.2,1.2,0,1,1-2.21-.92A1.19,1.19,0,0,1,97.8,9.48Z"/><path class="cls-2" d="M100.64,24.54a4.59,4.59,0,0,1-4-6.71,4.44,4.44,0,0,1,6.2-1.88,4.77,4.77,0,0,1,1.63,1.4l-1,1.86a3.6,3.6,0,0,0-1.55-1.58,2.65,2.65,0,0,0-2.47,4.69,3.41,3.41,0,0,0,2.18.38Z"/><path class="cls-2" d="M101.77,25.73l4-5.87L104.49,19l.93-1.39,1.32.88,1.13-1.69,1.78.67-1.38,2,1.31.89-.93,1.38L107.34,21l-3.94,5.87Z"/><path class="cls-2" d="M113.66,23.51a4.56,4.56,0,1,1-6.42.49A4.49,4.49,0,0,1,113.66,23.51ZM109,29a2.65,2.65,0,0,0,3.45-4A2.65,2.65,0,0,0,109,29Z"/><path class="cls-2" d="M118.58,30.06a2.34,2.34,0,0,1,2.36.76,4.55,4.55,0,0,1,.45.58l-1.54,1.39a2.94,2.94,0,0,0-.62-1,1.69,1.69,0,0,0-2.53,0l-3.83,3.45-1.31-1.45,6.51-5.85,1.3,1.45Z"/><path class="cls-2" d="M29.34,111l-1.17-1.33.6-.52,2.87,3.26L31,113l-1.15-1.31-4.35,3.84-.55-.63Z"/><path class="cls-2" d="M30.5,115a1.51,1.51,0,0,1,1.6.38,1.74,1.74,0,0,1,0,2.58L30,120.05l-.57-.56,1.92-2a1.19,1.19,0,1,0-1.67-1.7l-2,2-.58-.56,4.67-4.79.57.56Z"/><path class="cls-2" d="M32.61,119.57a1.6,1.6,0,0,0,.36,2.15,2.91,2.91,0,0,0,1.69.62l-.53.64a3.26,3.26,0,0,1-1.67-.73,2.46,2.46,0,0,1,3.09-3.82,2.23,2.23,0,0,1,.28,3.23,2.39,2.39,0,0,1-.31.32Zm.4-.49L35.36,121a1.42,1.42,0,0,0-.26-2A1.51,1.51,0,0,0,33,119.08Z"/><path class="cls-2" d="M37.36,124.4a.61.61,0,1,1-.7,1,.61.61,0,1,1,.7-1Z"/><path class="cls-2" d="M41.4,122.78,39,126.86l-.72-.42,3-5-.05-.82,0-.06.87.51.65,6.37L45.36,123l.72.42-3.34,5.69-.72-.43Z"/><path class="cls-2" d="M44.18,129.77l2.79-6,3.22,1.5-.34.72-2.46-1.15-.88,1.89,2.28,1.07-.33.72-2.29-1.07-.9,1.93,2.46,1.15-.33.72Z"/><path class="cls-2" d="M51.67,126.72,50,126.09l.28-.74,4.07,1.53-.28.75L52.46,127l-2.05,5.43-.78-.29Z"/><path class="cls-2" d="M59,129.43a2.49,2.49,0,0,0-1.26-.87c-.69-.18-1.21.06-1.35.6a1,1,0,0,0,.37,1l.92,1a1.88,1.88,0,0,1,.64,1.92,1.84,1.84,0,0,1-2.47,1.2,3.68,3.68,0,0,1-1.47-.8l.25-.95a2.59,2.59,0,0,0,1.4,1c.77.2,1.3-.13,1.43-.63.09-.34-.06-.7-.45-1.12l-.91-1a1.77,1.77,0,0,1,1.86-3,2.9,2.9,0,0,1,1.28.71Z"/><path class="cls-2" d="M62.15,135.31a2.46,2.46,0,1,1-.34-4.74,2.53,2.53,0,0,1,1.14.55l-.17.87a2,2,0,0,0-1.12-.63,1.62,1.62,0,0,0-1.93,1.31,1.64,1.64,0,0,0,1.3,2,2,2,0,0,0,1.28-.18Z"/><path class="cls-2" d="M64.32,131.7a1.3,1.3,0,0,1,1.31-.57,2,2,0,0,1,.39.1l-.11.85a1.54,1.54,0,0,0-.56-.18c-.67-.09-1.07.35-1.19,1.06l-.36,2.79-.8-.1.61-4.68.79.1Z"/><path class="cls-2" d="M66.58,134a1.59,1.59,0,0,0,1.55,1.53,3,3,0,0,0,1.73-.48l0,.83a3.35,3.35,0,0,1-1.79.38,2.46,2.46,0,0,1,.27-4.91,2.23,2.23,0,0,1,2.13,2.46,2.27,2.27,0,0,1-.07.43Zm0-.64,3,.2a1.42,1.42,0,0,0-1.4-1.51A1.51,1.51,0,0,0,66.62,133.36Z"/><path class="cls-2" d="M71.6,134.24a1.59,1.59,0,0,0,1.68,1.39A2.87,2.87,0,0,0,75,135l0,.84a3.3,3.3,0,0,1-1.75.52,2.46,2.46,0,0,1-.13-4.91,2.23,2.23,0,0,1,2.31,2.28,1.85,1.85,0,0,1,0,.43Zm0-.64,3,0a1.42,1.42,0,0,0-1.52-1.39A1.52,1.52,0,0,0,71.59,133.6Z"/><path class="cls-2" d="M76.73,132.14a1.51,1.51,0,0,1,1.33-1,1.73,1.73,0,0,1,2,1.68l.29,2.94-.8.07-.27-2.73A1.17,1.17,0,0,0,77.91,132a1.14,1.14,0,0,0-1.06,1.32l.28,2.8-.8.08-.47-4.7.8-.08Z"/><path class="cls-2" d="M81.55,131.8a1.94,1.94,0,0,1,1.56-1.4,2.46,2.46,0,0,1,.91,4.83,2,2,0,0,1-2-.69l.55,2.88-.79.15L80.58,131l.79-.15Zm2.19,2.67a1.66,1.66,0,1,0-1.93-1.33A1.63,1.63,0,0,0,83.74,134.47Z"/><path class="cls-2" d="M87.9,134.24l-.78.2L85.46,128l.78-.2Z"/><path class="cls-2" d="M87.8,129.63a3.17,3.17,0,0,1,1.2-.72,1.65,1.65,0,0,1,2.28,1.19l.89,2.87-.77.24-.15-.49a1.47,1.47,0,0,1-1,.95,1.54,1.54,0,0,1-2-1,1.56,1.56,0,0,1,1.13-2,1.67,1.67,0,0,1,1.34.16l-.17-.52a1,1,0,0,0-1.36-.69,2.58,2.58,0,0,0-1.11.75ZM90.25,133a.94.94,0,1,0-1.28-.6A1,1,0,0,0,90.25,133Z"/><path class="cls-2" d="M94.11,131.86l-3.28-3.4.85-.33,2.48,2.62.07-3.62.86-.33-.24,7.3-.87.33Z"/><path class="cls-2" d="M96.11,124.24l1.72-.9a2,2,0,1,1,1.83,3.51l-1,.52,1.22,2.34-.74.38Zm2.09-.19-1,.51,1.09,2.1,1-.51a1.1,1.1,0,0,0,.53-1.6A1.11,1.11,0,0,0,98.2,124.05Z"/><path class="cls-2" d="M101.08,124a3,3,0,0,1,1-1,1.64,1.64,0,0,1,2.5.58l1.58,2.56-.68.42-.28-.44a1.48,1.48,0,0,1-.73,1.18,1.56,1.56,0,1,1-1.63-2.66,1.68,1.68,0,0,1,1.34-.18l-.29-.46a1,1,0,0,0-1.49-.33,2.38,2.38,0,0,0-.89,1Zm3.21,2.67a1,1,0,0,0,.38-1.36,1,1,0,0,0-1.37-.24,1,1,0,0,0-.39,1.34A1,1,0,0,0,104.29,126.66Z"/><path class="cls-2" d="M107.25,125.35l-2.3-3.3-.72.51-.4-.57.75-.53-.66-.95.51-.6.78,1.11.76-.53.4.57-.76.53,2.31,3.3Z"/><path class="cls-2" d="M109.57,123.68l-2.45-3.19-.7.54-.43-.56.73-.56L106,119l.48-.63.83,1.08.74-.57.43.55-.74.57,2.45,3.19Z"/><path class="cls-2" d="M110.36,120.44a1.59,1.59,0,0,0,2.18,0,3,3,0,0,0,.9-1.56l.54.63a3.28,3.28,0,0,1-1,1.52,2.46,2.46,0,0,1-3.26-3.68,2.23,2.23,0,0,1,3.24.25,2.27,2.27,0,0,1,.26.36Zm-.42-.48,2.29-2a1.41,1.41,0,0,0-2-.09A1.51,1.51,0,0,0,109.94,120Z"/><path class="cls-2" d="M112.86,115.44a1.3,1.3,0,0,1,.35-1.39,1.49,1.49,0,0,1,.32-.24l.61.61a1.42,1.42,0,0,0-.49.32c-.48.48-.38,1.06.11,1.6l2,2-.57.57-3.33-3.35.57-.57Z"/><path class="cls-2" d="M114.87,113.53a1.49,1.49,0,0,1,.3-1.61,1.73,1.73,0,0,1,2.58-.09l2.21,2-.53.6-2.07-1.82a1.19,1.19,0,1,0-1.62,1.75l2.11,1.86-.54.6-3.53-3.13.53-.6Z"/></svg>