<svg id="Layer_1" data-name="Layer 1" xmlns="http://www.w3.org/2000/svg" viewBox="0 0 240.89 57.66"><path d="M32,36.39a2.43,2.43,0,0,1-.72,1.75,2.52,2.52,0,0,1-1.77.74c-2.41,0-4.93,0-7.32,0a10.63,10.63,0,0,1-8-3.31,10.15,10.15,0,0,1-2.54-7.79,10.05,10.05,0,0,1,9.91-9c1.64,0,3.28,0,5,0h3a2.5,2.5,0,0,1,0,5H22A5.52,5.52,0,0,0,17.48,26a5.18,5.18,0,0,0-.55,4.78c.7,1.94,2.66,3.13,5.22,3.13,1,0,2,0,3.09,0l3.08,0h1.15A2.49,2.49,0,0,1,32,36.39Z"/><path d="M39.67,37.29A9.65,9.65,0,0,1,30.39,46c-2.46,0-4.93,0-7.39,0a2.38,2.38,0,0,1,0-4.75h6.94a5,5,0,0,0,4.16-2.12,5,5,0,0,0-4.28-7.91H23a2.34,2.34,0,0,1-2.36-2.34v-.2A2.34,2.34,0,0,1,23,26.39h6.94a5,5,0,0,0,4.16-2.14,5,5,0,0,0-4.28-7.88c-2,0-4.06,0-6.12,0H23A2.33,2.33,0,0,1,20.64,14,2.36,2.36,0,0,1,23,11.61c2.28,0,4.62,0,6.84,0a9.7,9.7,0,0,1,9.85,10.72,9.56,9.56,0,0,1-3.43,6.47A9.81,9.81,0,0,1,39.67,37.29Z"/><path d="M51.06,38.34H48.54v-21h2.52V26.5a6.25,6.25,0,0,1,5.63-3.29A7.37,7.37,0,0,1,64,30.91c0,4.39-3.1,7.73-7.33,7.73a6.22,6.22,0,0,1-5.63-3.25Zm5.17-2.19a5.22,5.22,0,1,0-5.17-5.24A5.13,5.13,0,0,0,56.23,36.15Z"/><path d="M73.24,23.21a7.72,7.72,0,1,1-7.7,7.7A7.58,7.58,0,0,1,73.24,23.21Zm0,13a5.24,5.24,0,1,0-5.08-5.27A5.12,5.12,0,0,0,73.24,36.18Z"/><path d="M83.89,24.25a9.68,9.68,0,0,1,4.25-1c3.35,0,5.73,1.71,5.73,5.7v9.43H91.34V36.73a4.63,4.63,0,0,1-3.9,1.91,4.84,4.84,0,0,1-5.17-4.93,4.92,4.92,0,0,1,5.21-4.87,5.21,5.21,0,0,1,3.86,1.74v-1.7a3.16,3.16,0,0,0-3.44-3.35,7.57,7.57,0,0,0-4,1.22ZM88.05,36.7a3.12,3.12,0,0,0,3.26-3,3.14,3.14,0,0,0-3.26-2.92,3,3,0,1,0,0,5.91Z"/><path d="M114.16,37.61a7.63,7.63,0,0,1-3.83,1,7.54,7.54,0,0,1-7.77-7.73,7.54,7.54,0,0,1,7.77-7.7,8.06,8.06,0,0,1,3.83,1V27a6.06,6.06,0,0,0-3.83-1.31,5.24,5.24,0,0,0,0,10.47,6.24,6.24,0,0,0,3.83-1.31Z"/><path d="M123.26,23.21a7.72,7.72,0,1,1-7.7,7.7A7.58,7.58,0,0,1,123.26,23.21Zm0,13a5.24,5.24,0,1,0-5.08-5.27A5.13,5.13,0,0,0,123.26,36.18Z"/><path d="M135.93,25.86a4.74,4.74,0,0,1,4.44-2.65c3.41,0,5.57,2.5,5.57,5.88v9.25h-2.53V29.7c0-2.35-1.43-4-3.74-4s-3.65,1.52-3.74,3.8v8.83H133.4V23.52h2.53Z"/><path d="M156.88,26.65a5.81,5.81,0,0,0-3.37-1.18c-1.59,0-2.41.82-2.41,1.88,0,.8.43,1.22,1.31,1.77L155,30.67c1.91,1.16,2.49,2.43,2.49,3.83,0,2.53-2,4.14-5.08,4.14a8.92,8.92,0,0,1-3.84-.88V35a6,6,0,0,0,3.72,1.4c1.67,0,2.59-.79,2.59-1.92,0-.76-.4-1.33-1.53-2l-2.74-1.65a4,4,0,0,1-2.19-3.56c0-2.31,1.77-4.08,5-4.08a8,8,0,0,1,3.41.76Z"/><path d="M161.18,38.34V25.71h-2.77V23.52h2.89V19.9l2.4-.64v4.26h2.93v2.19H163.7V38.34Z"/><path d="M170.76,25.53a4.07,4.07,0,0,1,3.83-2.32,5.86,5.86,0,0,1,1.25.16v2.7a4.64,4.64,0,0,0-1.79-.36c-2.13,0-3.2,1.52-3.29,3.8v8.83h-2.53V23.52h2.53Z"/><path d="M178.74,17.19a1.64,1.64,0,0,1,1.7,1.67,1.67,1.67,0,0,1-3.34,0A1.64,1.64,0,0,1,178.74,17.19ZM180,38.34h-2.53V23.52H180Z"/><path d="M194,37.61a7.63,7.63,0,0,1-3.83,1,7.54,7.54,0,0,1-7.76-7.73,7.54,7.54,0,0,1,7.76-7.7,8,8,0,0,1,3.83,1V27a6.06,6.06,0,0,0-3.83-1.31,5.24,5.24,0,0,0,0,10.47A6.24,6.24,0,0,0,194,34.87Z"/><path d="M198,38.34V25.71h-2.76V23.52h2.89V19.9l2.4-.64v4.26h2.92v2.19h-2.92V38.34Z"/><path d="M211.53,23.21a7.72,7.72,0,1,1-7.7,7.7A7.58,7.58,0,0,1,211.53,23.21Zm0,13a5.24,5.24,0,1,0-5.08-5.27A5.12,5.12,0,0,0,211.53,36.18Z"/><path d="M224.19,25.53A4.07,4.07,0,0,1,228,23.21a5.86,5.86,0,0,1,1.25.16v2.7a4.64,4.64,0,0,0-1.79-.36c-2.13,0-3.2,1.52-3.29,3.8v8.83h-2.52V23.52h2.52Z"/></svg>