<svg id="Layer_1" data-name="Layer 1" xmlns="http://www.w3.org/2000/svg" viewBox="0 0 30 36.77"><defs><style>.cls-1{fill:#fff;}</style></defs><path class="cls-1" d="M21.72,26.46A2.55,2.55,0,0,1,21,28.32a2.67,2.67,0,0,1-1.89.8c-2.57,0-5.26,0-7.81,0a11.37,11.37,0,0,1-8.5-3.53A10.74,10.74,0,0,1,10.62,7.62c1.75,0,3.5,0,5.28,0h3.16a2.67,2.67,0,0,1,0,5.34H11.12a5.85,5.85,0,0,0-4.86,2.39,5.53,5.53,0,0,0-.58,5.1c.74,2.07,2.84,3.35,5.57,3.35,1.07,0,2.18,0,3.3,0l3.29,0h1.22A2.65,2.65,0,0,1,21.72,26.46Z"/><path class="cls-1" d="M30,27.42a10.29,10.29,0,0,1-9.91,9.29c-2.63.06-5.26.06-7.89.06a2.54,2.54,0,0,1,0-5.08h7.41A5.33,5.33,0,0,0,24,29.43,5.37,5.37,0,0,0,19.44,21H12.16a2.51,2.51,0,0,1-2.53-2.5v-.21a2.51,2.51,0,0,1,2.53-2.5h7.41a5.34,5.34,0,0,0,5.05-7.25,5.43,5.43,0,0,0-5.18-3.46c-2.1,0-4.33,0-6.54,0h-.8A2.5,2.5,0,0,1,9.63,2.52,2.52,2.52,0,0,1,12.13,0c2.45,0,4.94,0,7.31,0A10.37,10.37,0,0,1,30,11.48a10.21,10.21,0,0,1-3.67,6.9A10.5,10.5,0,0,1,30,27.42Z"/></svg>