<svg id="Layer_1" data-name="Layer 1" xmlns="http://www.w3.org/2000/svg" viewBox="0 0 144 144"><defs><style>.cls-1{fill:#010101;}.cls-2{fill:#fff;}</style></defs><circle class="cls-1" cx="72" cy="72" r="72"/><path class="cls-2" d="M82.67,89.22a4.84,4.84,0,0,1-1.45,3.51,5,5,0,0,1-3.56,1.5c-4.86,0-9.91,0-14.72,0a21.4,21.4,0,0,1-16-6.66,20.34,20.34,0,0,1-5.1-15.67c.8-10,9.56-18,19.93-18.13,3.3,0,6.61,0,10,0h6a5,5,0,0,1,0,10.07h-15a11.13,11.13,0,0,0-9.17,4.5,10.48,10.48,0,0,0-1.1,9.62c1.4,3.9,5.36,6.31,10.52,6.31,2,0,4.1,0,6.21,0l6.21,0h2.3A5,5,0,0,1,82.67,89.22Z"/><path class="cls-2" d="M98.19,91a19.41,19.41,0,0,1-18.68,17.52c-5,.1-9.91.1-14.87.1a4.78,4.78,0,0,1,0-9.56h14A10,10,0,0,0,87,94.83a10.13,10.13,0,0,0-8.61-15.92H64.64a4.72,4.72,0,0,1-4.76-4.71v-.4a4.72,4.72,0,0,1,4.76-4.71h14a10.08,10.08,0,0,0,9.52-13.67,10.25,10.25,0,0,0-9.77-6.51c-4,0-8.16,0-12.32,0h-1.5a4.76,4.76,0,0,1,0-9.51c4.61,0,9.31,0,13.77,0A19.56,19.56,0,0,1,98.19,61a19.2,19.2,0,0,1-6.91,13A19.72,19.72,0,0,1,98.19,91Z"/><path class="cls-2" d="M26.92,54.26l-1.06,2.17L12.22,49.76l1.07-2.18,5.49,2.69a4.21,4.21,0,0,1-.15-4.19c1.35-2.77,4.5-3.65,7.37-2.25s4.12,4.45,2.77,7.19a4.22,4.22,0,0,1-3.43,2.46Zm-.49-3.85a3.27,3.27,0,1,0-4.37,1.47A3.21,3.21,0,0,0,26.43,50.41Z"/><path class="cls-2" d="M25.61,35.33a5.64,5.64,0,1,1,.82,7.92A5.54,5.54,0,0,1,25.61,35.33Zm6.91,5.61a3.28,3.28,0,0,0-5.09-4.13,3.28,3.28,0,0,0,5.09,4.13Z"/><path class="cls-2" d="M31.87,29.5a7.73,7.73,0,0,1,2-2.5c2.07-1.7,4.24-1.8,6.18.57l4.24,5.17-1.87,1.54-.63-.77a3.31,3.31,0,0,1-1.26,2.63,3.46,3.46,0,0,1-5.1-.43,3.53,3.53,0,0,1,.63-5.1,3.7,3.7,0,0,1,2.66-.84l-.57-.7A2,2,0,0,0,35,28.84a5.46,5.46,0,0,0-1.65,2.46Zm8,4.81a1.85,1.85,0,0,0,.41-2.59,2,2,0,0,0-3,2.47A1.85,1.85,0,0,0,39.85,34.31Z"/><path class="cls-2" d="M55.8,26.44a5.57,5.57,0,0,1-2.12,1.64,5.51,5.51,0,0,1-7.5-2.86,5.49,5.49,0,0,1,2.93-7.46,5.84,5.84,0,0,1,2.61-.51l1.05,2.37a4.41,4.41,0,0,0-2.71.29,3.28,3.28,0,0,0,2.66,6,4.21,4.21,0,0,0,2-1.82Z"/><path class="cls-2" d="M58.83,14.69a5.64,5.64,0,0,1,2.48,11,5.54,5.54,0,0,1-6.73-4.28A5.52,5.52,0,0,1,58.83,14.69Zm2,8.7A3.28,3.28,0,1,0,57,20.89,3.19,3.19,0,0,0,60.79,23.39Z"/><path class="cls-2" d="M69.34,15a3.29,3.29,0,0,1,3-1.8,3.86,3.86,0,0,1,4,4.11l.11,6.87-2.42,0L74,18a2.23,2.23,0,0,0-2.33-2.41,2.19,2.19,0,0,0-2.23,2.35l.1,6.38-2.42,0L66.9,13.53l2.42,0Z"/><path class="cls-2" d="M84.7,17.46a4.63,4.63,0,0,0-2.27-1.17c-.91-.16-1.47.21-1.57.8s.16.74.62,1.16L83,19.56a3.21,3.21,0,0,1,1.29,3.13c-.32,1.84-2,2.9-4.36,2.48a7.23,7.23,0,0,1-2.67-1.09l.43-2.45a4.57,4.57,0,0,0,2.47,1.46c.95.16,1.55-.22,1.66-.85.08-.44-.1-.82-.7-1.33l-1.64-1.4a3,3,0,0,1-1.08-2.91c.31-1.78,1.87-2.83,4.3-2.41a7.88,7.88,0,0,1,2.4.87Z"/><path class="cls-2" d="M85.49,26.16l2.63-8.35-1.75-.55.63-2,1.86.59.76-2.41,2.34.18L91,16.56l1.87.59-.62,2-1.87-.59-2.63,8.35Z"/><path class="cls-2" d="M96.34,20.1a2.92,2.92,0,0,1,3.06-.29,6,6,0,0,1,.79.44l-1.07,2.34a3.61,3.61,0,0,0-1.2-.87A2.09,2.09,0,0,0,95,22.93l-2.67,5.8-2.2-1,4.54-9.83,2.19,1Z"/><path class="cls-2" d="M98.2,31.9l-2.07-1.25,5.6-9.26,2.07,1.25Zm7-14a1.49,1.49,0,0,1-1.54,2.56,1.49,1.49,0,1,1,1.54-2.56Z"/><path class="cls-2" d="M105.81,37.15a5.68,5.68,0,0,1-3.34-9.1,5.48,5.48,0,0,1,8-.83,5.79,5.79,0,0,1,1.65,2.08l-1.62,2a4.35,4.35,0,0,0-1.5-2.28,3.28,3.28,0,0,0-4.1,5.12,4.23,4.23,0,0,0,2.55,1Z"/><path class="cls-2" d="M106.86,39l6.41-6L112,31.65l1.51-1.41,1.34,1.43L116.73,30l2,1.32-2.24,2.08,1.33,1.43-1.51,1.41-1.34-1.43-6.41,6Z"/><path class="cls-2" d="M121.94,40.15a5.65,5.65,0,1,1-7.81-1.6A5.56,5.56,0,0,1,121.94,40.15Zm-7.44,4.91A3.28,3.28,0,0,0,120,41.45a3.28,3.28,0,0,0-5.47,3.61Z"/><path class="cls-2" d="M125.52,50.05A2.94,2.94,0,0,1,128,51.89a6.1,6.1,0,0,1,.29.85l-2.36,1a3.91,3.91,0,0,0-.31-1.45,2.1,2.1,0,0,0-3-1l-5.86,2.51-1-2.22,10-4.26,1,2.22Z"/><path class="cls-2" d="M28,99.91l-1-1.7.77-.44L30.22,102l-.77.44-1-1.68L22.88,104l-.47-.81Z"/><path class="cls-2" d="M28.41,104.44a1.69,1.69,0,0,1,1.68.74,1.94,1.94,0,0,1-.55,2.82l-2.67,1.9-.53-.73,2.5-1.78a1.33,1.33,0,1,0-1.49-2.2L24.8,107l-.52-.73L30.35,102l.52.73Z"/><path class="cls-2" d="M29.78,109.83a1.77,1.77,0,0,0,0,2.43,3.27,3.27,0,0,0,1.74,1l-.7.61a3.71,3.71,0,0,1-1.7-1.11,2.74,2.74,0,0,1,4.08-3.65,2.48,2.48,0,0,1-.27,3.61,2.17,2.17,0,0,1-.39.29Zm.54-.47,2.23,2.55a1.58,1.58,0,0,0,.08-2.29A1.68,1.68,0,0,0,30.32,109.36Z"/><path class="cls-2" d="M34.22,116a.68.68,0,0,1,0,1,.69.69,0,0,1-1-.94A.68.68,0,0,1,34.22,116Z"/><path class="cls-2" d="M38.87,114.8,35.65,119l-.74-.57,4-5.15.06-.91,0-.06.89.68-.18,7.13,3.52-4.55.73.57-4.49,5.81-.74-.57Z"/><path class="cls-2" d="M41,122.9l3.8-6.29,3.38,2-.45.76-2.59-1.56-1.2,2,2.4,1.45-.46.76-2.4-1.46-1.22,2,2.58,1.56-.45.76Z"/><path class="cls-2" d="M49.61,120.35l-1.77-.86.39-.79,4.35,2.1-.39.8-1.75-.85-2.81,5.81-.83-.4Z"/><path class="cls-2" d="M57.45,123.94a2.73,2.73,0,0,0-1.33-1c-.76-.26-1.35,0-1.55.56a1.16,1.16,0,0,0,.34,1.14l1,1.16a2.1,2.1,0,0,1,.57,2.19,2.05,2.05,0,0,1-2.84,1.16,4,4,0,0,1-1.56-1l.34-1a2.9,2.9,0,0,0,1.48,1.19,1.19,1.19,0,0,0,1.64-.59,1.37,1.37,0,0,0-.41-1.28l-.95-1.16a2,2,0,0,1-.51-2.07c.3-.9,1.22-1.62,2.8-1.09a3.19,3.19,0,0,1,1.37.88Z"/><path class="cls-2" d="M60.53,130.63a2.74,2.74,0,1,1-.12-5.28,3,3,0,0,1,1.24.66l-.24,1a2.06,2.06,0,0,0-1.21-.77A1.81,1.81,0,0,0,58,127.57a1.84,1.84,0,0,0,1.34,2.25,2.3,2.3,0,0,0,1.44-.13Z"/><path class="cls-2" d="M63.09,126.72a1.43,1.43,0,0,1,1.48-.58,2.11,2.11,0,0,1,.43.12l-.16.95a1.69,1.69,0,0,0-.61-.23c-.74-.13-1.2.34-1.37,1.14l-.52,3.08-.88-.14.87-5.19.88.15Z"/><path class="cls-2" d="M65.5,129.36a1.77,1.77,0,0,0,1.69,1.74,3.15,3.15,0,0,0,1.93-.49l-.08.93a3.66,3.66,0,0,1-2,.37,2.74,2.74,0,0,1,.42-5.46,2.5,2.5,0,0,1,2.31,2.8,4.16,4.16,0,0,1-.09.48Zm.06-.71,3.36.3a1.57,1.57,0,0,0-1.51-1.72A1.69,1.69,0,0,0,65.56,128.65Z"/><path class="cls-2" d="M71.08,129.74a1.78,1.78,0,0,0,1.86,1.56,3.23,3.23,0,0,0,1.88-.69l0,.93a3.66,3.66,0,0,1-2,.58,2.74,2.74,0,0,1-.14-5.47,2.47,2.47,0,0,1,2.58,2.54,3.23,3.23,0,0,1,0,.48Zm0-.71,3.38-.06a1.58,1.58,0,0,0-1.68-1.55A1.7,1.7,0,0,0,71.07,129Z"/><path class="cls-2" d="M76.7,127.4a1.69,1.69,0,0,1,1.46-1.11,1.93,1.93,0,0,1,2.2,1.85l.37,3.26-.89.1-.34-3.05A1.29,1.29,0,0,0,78,127.2a1.27,1.27,0,0,0-1.17,1.49l.35,3.11-.89.1-.59-5.22.89-.1Z"/><path class="cls-2" d="M82,126.94a2.18,2.18,0,0,1,1.69-1.62,2.74,2.74,0,0,1,1.19,5.35A2.18,2.18,0,0,1,82.7,130l.71,3.18-.88.2-1.63-7.3.87-.2Zm2.54,2.9a1.85,1.85,0,1,0-2.2-1.41A1.82,1.82,0,0,0,84.55,129.84Z"/><path class="cls-2" d="M89.18,129.38l-.85.27-2.19-7.13.85-.26Z"/><path class="cls-2" d="M88.76,124.29a3.49,3.49,0,0,1,1.28-.88,1.83,1.83,0,0,1,2.62,1.17l1.18,3.13L93,128l-.2-.53a1.64,1.64,0,0,1-1,1.12,1.72,1.72,0,0,1-2.34-1,1.75,1.75,0,0,1,1.12-2.27,1.86,1.86,0,0,1,1.5.09l-.22-.56a1.12,1.12,0,0,0-1.56-.68,2.71,2.71,0,0,0-1.18.91Zm2.94,3.61a1.05,1.05,0,1,0-.74-2,1.1,1.1,0,0,0-.71,1.37A1.11,1.11,0,0,0,91.7,127.9Z"/><path class="cls-2" d="M95.9,126.34,92,122.83l.93-.44,3,2.71-.21-4,.92-.44.33,8.13-.94.45Z"/><path class="cls-2" d="M97.43,117.73l1.81-1.18a2.21,2.21,0,1,1,2.41,3.69l-1,.67,1.61,2.46-.78.51Zm2.3-.44-1,.67,1.44,2.21,1-.67a1.32,1.32,0,1,0-1.43-2.21Z"/><path class="cls-2" d="M102.82,116.94a3.45,3.45,0,0,1,1-1.23,1.84,1.84,0,0,1,2.85.33l2.07,2.63-.71.56-.35-.45a1.66,1.66,0,0,1-.67,1.39,1.72,1.72,0,0,1-2.52-.24,1.74,1.74,0,0,1,.38-2.5,1.89,1.89,0,0,1,1.46-.37l-.37-.47a1.13,1.13,0,0,0-1.7-.18,2.71,2.71,0,0,0-.85,1.22Zm3.9,2.55A1.1,1.1,0,0,0,107,118a1.16,1.16,0,0,0-1.82,1.43A1.12,1.12,0,0,0,106.72,119.49Z"/><path class="cls-2" d="M109.8,117.69l-3-3.34-.73.66-.52-.57.76-.69-.86-1,.48-.74,1,1.13.77-.7.52.58-.77.69,3,3.33Z"/><path class="cls-2" d="M112.14,115.5,109,112.33l-.7.7-.55-.55.73-.72-.91-.91.44-.77,1.07,1.07.73-.73.55.54-.73.74,3.18,3.16Z"/><path class="cls-2" d="M112.51,111.81a1.77,1.77,0,0,0,2.4-.37,3.29,3.29,0,0,0,.73-1.86l.71.6a3.74,3.74,0,0,1-.86,1.85,2.74,2.74,0,0,1-4.19-3.52,2.48,2.48,0,0,1,3.61-.25,2.74,2.74,0,0,1,.34.35Zm-.54-.47,2.2-2.57a1.59,1.59,0,0,0-2.28.24A1.69,1.69,0,0,0,112,111.34Z"/><path class="cls-2" d="M114.38,105.93a1.44,1.44,0,0,1,.13-1.58,3.19,3.19,0,0,1,.31-.33l.77.57a1.38,1.38,0,0,0-.47.44c-.45.61-.23,1.23.4,1.73l2.54,1.85-.53.72-4.26-3.09.53-.73Z"/><path class="cls-2" d="M116.2,103.53a1.68,1.68,0,0,1,0-1.84,1.94,1.94,0,0,1,2.81-.6l2.8,1.71-.47.77-2.62-1.6a1.33,1.33,0,1,0-1.44,2.23l2.68,1.63-.47.77L115,103.86l.47-.77Z"/></svg>