<svg id="Layer_1" data-name="Layer 1" xmlns="http://www.w3.org/2000/svg" viewBox="0 0 200 31.64"><path d="M18.69,22.77a2.23,2.23,0,0,1-.66,1.6,2.3,2.3,0,0,1-1.62.69c-2.22,0-4.53,0-6.72,0a9.76,9.76,0,0,1-7.32-3A9.24,9.24,0,0,1,9.14,6.56c1.51,0,3,0,4.55,0h2.72a2.3,2.3,0,0,1,2.28,2.31,2.27,2.27,0,0,1-2.28,2.28H9.57a5.08,5.08,0,0,0-4.18,2.06,4.8,4.8,0,0,0-.51,4.39c.64,1.78,2.45,2.88,4.81,2.88.91,0,1.87,0,2.83,0l2.84,0h1.05A2.28,2.28,0,0,1,18.69,22.77Z"/><path d="M25.78,23.59a8.87,8.87,0,0,1-8.53,8c-2.26,0-4.52,0-6.79,0a2.19,2.19,0,0,1,0-4.37h6.38a4.58,4.58,0,0,0,3.82-1.94,4.63,4.63,0,0,0-3.93-7.27H10.46a2.15,2.15,0,0,1-2.17-2.15v-.18a2.15,2.15,0,0,1,2.17-2.15h6.38a4.6,4.6,0,0,0,4.34-6.24,4.66,4.66,0,0,0-4.45-3c-1.81,0-3.73,0-5.63,0h-.68A2.15,2.15,0,0,1,8.29,2.17,2.16,2.16,0,0,1,10.44,0c2.1,0,4.25,0,6.29,0a8.93,8.93,0,0,1,9.05,9.86,8.79,8.79,0,0,1-3.15,5.94A9,9,0,0,1,25.78,23.59Z"/><path d="M36.25,24.56H33.93V5.26h2.32v8.42a5.72,5.72,0,0,1,5.17-3,6.77,6.77,0,0,1,6.74,7.07,6.77,6.77,0,0,1-6.74,7.11,5.71,5.71,0,0,1-5.17-3Zm4.75-2a4.8,4.8,0,1,0-4.75-4.82A4.72,4.72,0,0,0,41,22.55Z"/><path d="M56.63,10.66a7,7,0,0,1,7.07,7.07,7.08,7.08,0,1,1-14.15,0A7,7,0,0,1,56.63,10.66Zm0,11.91a4.71,4.71,0,0,0,4.7-4.84,4.69,4.69,0,1,0-9.37,0A4.7,4.7,0,0,0,56.63,22.57Z"/><path d="M66.41,11.61a9,9,0,0,1,3.91-.95c3.08,0,5.26,1.57,5.26,5.23v8.67H73.26V23.07a4.23,4.23,0,0,1-3.58,1.77,4.45,4.45,0,0,1-4.75-4.53,4.51,4.51,0,0,1,4.78-4.48,4.78,4.78,0,0,1,3.55,1.6V15.86a2.91,2.91,0,0,0-3.16-3.08,7.08,7.08,0,0,0-3.69,1.12Zm3.83,11.44a2.86,2.86,0,0,0,3-2.74,2.9,2.9,0,0,0-3-2.69,2.86,2.86,0,0,0-3,2.69A2.88,2.88,0,0,0,70.24,23.05Z"/><path d="M94.23,23.89a7.15,7.15,0,0,1-3.53.95,6.94,6.94,0,0,1-7.13-7.11,6.93,6.93,0,0,1,7.13-7.07,7.41,7.41,0,0,1,3.53.92v2.58A5.59,5.59,0,0,0,90.7,13,4.7,4.7,0,0,0,86,17.73a4.73,4.73,0,0,0,4.75,4.84,5.77,5.77,0,0,0,3.53-1.2Z"/><path d="M102.59,10.66a7,7,0,0,1,7.07,7.07,7.07,7.07,0,1,1-14.14,0A7,7,0,0,1,102.59,10.66Zm0,11.91a4.71,4.71,0,0,0,4.7-4.84,4.69,4.69,0,1,0-9.37,0A4.7,4.7,0,0,0,102.59,22.57Z"/><path d="M114.23,13.09a4.34,4.34,0,0,1,4.08-2.43c3.13,0,5.12,2.29,5.12,5.4v8.5h-2.32V16.62A3.36,3.36,0,0,0,117.67,13a3.3,3.3,0,0,0-3.44,3.5v8.11h-2.32V10.94h2.32Z"/><path d="M133.48,13.82a5.35,5.35,0,0,0-3.1-1.09c-1.46,0-2.21.75-2.21,1.73,0,.73.39,1.12,1.2,1.63l2.41,1.42c1.76,1.06,2.29,2.24,2.29,3.52,0,2.33-1.79,3.81-4.67,3.81a8.16,8.16,0,0,1-3.52-.81V21.51a5.53,5.53,0,0,0,3.41,1.29c1.54,0,2.38-.73,2.38-1.77,0-.7-.37-1.23-1.4-1.84l-2.52-1.51a3.65,3.65,0,0,1-2-3.27c0-2.13,1.62-3.75,4.61-3.75a7.31,7.31,0,0,1,3.13.7Z"/><path d="M137.43,24.56V13h-2.54v-2h2.65V7.61L139.75,7v3.92h2.69v2h-2.69V24.56Z"/><path d="M146.24,12.78a3.74,3.74,0,0,1,3.52-2.12,5.55,5.55,0,0,1,1.14.14v2.49a4.1,4.1,0,0,0-1.65-.34c-1.95,0-2.93,1.4-3,3.5v8.11h-2.33V10.94h2.33Z"/><path d="M153.57,5.12a1.51,1.51,0,0,1,1.56,1.54,1.54,1.54,0,0,1-3.07,0A1.52,1.52,0,0,1,153.57,5.12Zm1.17,19.44h-2.32V10.94h2.32Z"/><path d="M167.59,23.89a7.12,7.12,0,0,1-3.52.95,6.93,6.93,0,0,1-7.13-7.11,6.92,6.92,0,0,1,7.13-7.07,7.4,7.4,0,0,1,3.52.92v2.58A5.54,5.54,0,0,0,164.07,13a4.7,4.7,0,0,0-4.75,4.78,4.73,4.73,0,0,0,4.75,4.84,5.71,5.71,0,0,0,3.52-1.2Z"/><path d="M171.29,24.56V13h-2.55v-2h2.66V7.61L173.61,7v3.92h2.68v2h-2.68V24.56Z"/><path d="M183.7,10.66a7,7,0,0,1,7.07,7.07,7.08,7.08,0,1,1-14.15,0A7,7,0,0,1,183.7,10.66Zm0,11.91a4.71,4.71,0,0,0,4.7-4.84,4.69,4.69,0,1,0-9.37,0A4.7,4.7,0,0,0,183.7,22.57Z"/><path d="M195.33,12.78a3.74,3.74,0,0,1,3.52-2.12,5.56,5.56,0,0,1,1.15.14v2.49a4.14,4.14,0,0,0-1.65-.34c-2,0-2.94,1.4-3,3.5v8.11H193V10.94h2.32Z"/></svg>